<?xml version="1.0" standalone="no"?>
<svg xmlns:xlink="http://www.w3.org/1999/xlink" id="wave" style="transform:rotate(0deg); transition: 0.3s" viewBox="0 0 1440 100" version="1.1" xmlns="http://www.w3.org/2000/svg"><defs><linearGradient id="sw-gradient-0" x1="0" x2="0" y1="1" y2="0"><stop stop-color="rgba(21, 20, 24, 1)" offset="0%"/><stop stop-color="rgba(21, 20, 24, 1)" offset="100%"/></linearGradient></defs><path style="transform:translate(0, 0px); opacity:1" fill="url(#sw-gradient-0)" d="M0,20L34.3,25C68.6,30,137,40,206,45C274.3,50,343,50,411,56.7C480,63,549,77,617,83.3C685.7,90,754,90,823,83.3C891.4,77,960,63,1029,51.7C1097.1,40,1166,30,1234,25C1302.9,20,1371,20,1440,28.3C1508.6,37,1577,53,1646,51.7C1714.3,50,1783,30,1851,26.7C1920,23,1989,37,2057,40C2125.7,43,2194,37,2263,31.7C2331.4,27,2400,23,2469,33.3C2537.1,43,2606,67,2674,75C2742.9,83,2811,77,2880,76.7C2948.6,77,3017,83,3086,86.7C3154.3,90,3223,90,3291,86.7C3360,83,3429,77,3497,68.3C3565.7,60,3634,50,3703,41.7C3771.4,33,3840,27,3909,25C3977.1,23,4046,27,4114,31.7C4182.9,37,4251,43,4320,43.3C4388.6,43,4457,37,4526,36.7C4594.3,37,4663,43,4731,46.7C4800,50,4869,50,4903,50L4937.1,50L4937.1,100L4902.9,100C4868.6,100,4800,100,4731,100C4662.9,100,4594,100,4526,100C4457.1,100,4389,100,4320,100C4251.4,100,4183,100,4114,100C4045.7,100,3977,100,3909,100C3840,100,3771,100,3703,100C3634.3,100,3566,100,3497,100C3428.6,100,3360,100,3291,100C3222.9,100,3154,100,3086,100C3017.1,100,2949,100,2880,100C2811.4,100,2743,100,2674,100C2605.7,100,2537,100,2469,100C2400,100,2331,100,2263,100C2194.3,100,2126,100,2057,100C1988.6,100,1920,100,1851,100C1782.9,100,1714,100,1646,100C1577.1,100,1509,100,1440,100C1371.4,100,1303,100,1234,100C1165.7,100,1097,100,1029,100C960,100,891,100,823,100C754.3,100,686,100,617,100C548.6,100,480,100,411,100C342.9,100,274,100,206,100C137.1,100,69,100,34,100L0,100Z"/></svg>