<?xml version="1.0" encoding="UTF-8"?>
<svg xmlns="http://www.w3.org/2000/svg" xmlns:xlink="http://www.w3.org/1999/xlink" width="82px" height="50px" viewBox="0 0 81 50" version="1.1">
<defs>
<clipPath id="clip1">
  <path d="M 0 0 L 81 0 L 81 49.089844 L 0 49.089844 Z M 0 0 "/>
</clipPath>
</defs>
<g id="surface1">
<g clip-path="url(#clip1)" clip-rule="nonzero">
<path style=" stroke:none;fill-rule:evenodd;fill:rgb(21.960784%,74.117647%,97.254902%);fill-opacity:1;" d="M 40.5 0 C 29.699219 0 22.949219 5.453125 20.25 16.363281 C 24.300781 10.910156 29.023438 8.863281 34.425781 10.226562 C 37.507812 11.003906 39.707031 13.261719 42.144531 15.761719 C 46.117188 19.832031 50.710938 24.546875 60.75 24.546875 C 71.550781 24.546875 78.300781 19.089844 81 8.183594 C 76.949219 13.636719 72.226562 15.683594 66.824219 14.316406 C 63.742188 13.539062 61.542969 11.28125 59.105469 8.785156 C 55.132812 4.710938 50.539062 0 40.5 0 Z M 20.25 24.546875 C 9.449219 24.546875 2.699219 30 0 40.910156 C 4.050781 35.453125 8.773438 33.410156 14.175781 34.773438 C 17.257812 35.550781 19.457031 37.808594 21.894531 40.308594 C 25.867188 44.378906 30.460938 49.089844 40.5 49.089844 C 51.300781 49.089844 58.050781 43.636719 60.75 32.726562 C 56.699219 38.183594 51.976562 40.226562 46.574219 38.863281 C 43.492188 38.085938 41.292969 35.828125 38.855469 33.328125 C 34.882812 29.257812 30.289062 24.546875 20.25 24.546875 Z M 20.25 24.546875 "/>
</g>
</g>
</svg>
