<svg width="247" height="120" viewBox="0 0 247 120" fill="none" xmlns="http://www.w3.org/2000/svg">
<path d="M0.46875 67.7188C0.46875 67.0312 0.75 66.4375 1.3125 65.9375C1.875 65.4375 2.4375 65 3 64.625C3.625 64.25 4.59375 63.6562 5.90625 62.8438C7.28125 62.0312 8.78125 61.125 10.4062 60.125C12.0938 59.0625 13.875 57.9688 15.75 56.8438C17.625 55.6562 19.375 54.5625 21 53.5625C22.6875 52.5 24.1875 51.5625 25.5 50.75C26.875 49.9375 27.875 49.3125 28.5 48.875C29.25 48.375 29.9062 47.9375 30.4688 47.5625C31.0312 47.1875 31.5938 46.9062 32.1562 46.7188C32.7188 46.4688 33.3125 46.2812 33.9375 46.1562C34.625 46.0312 35.4688 45.9688 36.4688 45.9688C36.4688 47.5312 36.0625 48.7812 35.25 49.7188C34.4375 50.6562 33.4062 51.5938 32.1562 52.5312C31.4062 53.0312 30.0312 53.9375 28.0312 55.25C26.0938 56.5 24.0312 57.8438 21.8438 59.2812C19.6562 60.6562 17.5938 62 15.6562 63.3125C13.7188 64.5625 12.3438 65.4062 11.5312 65.8438C10.6562 66.3438 10.2188 67 10.2188 67.8125V68.0938C10.2188 68.1562 10.25 68.2188 10.3125 68.2812L33.375 71.9375C33.375 72.0625 33.4062 72.1875 33.4688 72.3125C33.4688 72.4375 33.4688 72.5625 33.4688 72.6875C33.5312 72.75 33.5625 72.8125 33.5625 72.875C33.5625 74.625 32.6875 75.9375 30.9375 76.8125C30.75 76.8125 30.3438 76.8125 29.7188 76.8125C29.1562 76.8125 28.5312 76.8438 27.8438 76.9062C27.2188 76.9062 26.625 76.9062 26.0625 76.9062C25.5 76.9062 25.0938 76.9062 24.8438 76.9062C24.0312 76.9062 22.8438 76.875 21.2812 76.8125C19.7812 76.6875 18.125 76.5 16.3125 76.25C14.5 75.9375 12.6562 75.5625 10.7812 75.125C8.90625 74.6875 7.1875 74.125 5.625 73.4375C4.125 72.75 2.875 71.9375 1.875 71C0.9375 70.0625 0.46875 68.9688 0.46875 67.7188ZM45.5625 86.8438C45.5625 86.7188 45.5938 86.625 45.6562 86.5625C46.6562 85.5 47.8438 84.25 49.2188 82.8125C50.5938 81.3125 52 79.75 53.4375 78.125C54.9375 76.5 56.375 74.8438 57.75 73.1562C59.1875 71.4688 60.4062 69.875 61.4062 68.375C61.5938 68.0625 61.8438 67.5938 62.1562 66.9688C62.4688 66.3438 62.625 65.9688 62.625 65.8438C61.625 63.0938 60.875 60.1562 60.375 57.0312C59.9375 53.8438 59.625 50.6562 59.4375 47.4688C59.25 44.2812 59.125 41.1562 59.0625 38.0938C59.0625 34.9688 59.0312 32.0938 58.9688 29.4688C58.2812 28.0938 57.1562 27.3125 55.5938 27.125C54.0938 26.9375 52.4375 27.0312 50.625 27.4062C48.875 27.7188 47.125 28.125 45.375 28.625C43.6875 29.125 42.3438 29.4062 41.3438 29.4688H40.6875C41.1875 27.9062 42.125 26.5625 43.5 25.4375C44.9375 24.25 46.5625 23.3438 48.375 22.7188C50.25 22.0312 52.1875 21.6562 54.1875 21.5938C56.25 21.5312 58.125 21.8125 59.8125 22.4375C61.5625 23 63.0312 23.9688 64.2188 25.3438C65.4062 26.6562 66.0938 28.4062 66.2812 30.5938L67.4062 59.8438C68.5312 59.0938 69.7812 57.9688 71.1562 56.4688C72.5312 54.9688 73.9375 53.25 75.375 51.3125C76.875 49.375 78.375 47.3125 79.875 45.125C81.4375 42.875 82.9375 40.7188 84.375 38.6562C85.8125 36.5312 87.1562 34.5625 88.4062 32.75C89.6562 30.9375 90.7812 29.4375 91.7812 28.25C92.7188 26.9375 93.5312 26.0938 94.2188 25.7188C94.9062 25.3438 95.4688 25.2812 95.9062 25.5312C96.3438 25.7188 96.625 26.1875 96.75 26.9375C96.875 27.625 96.875 28.4375 96.75 29.375C96.625 30.25 96.3438 31.125 95.9062 32C95.4688 32.875 94.9062 33.625 94.2188 34.25C90.3438 39.3125 87.0625 43.625 84.375 47.1875C81.75 50.75 79.5625 53.7188 77.8125 56.0938C76.125 58.4688 74.8125 60.3438 73.875 61.7188C72.9375 63.0938 72.25 64.1562 71.8125 64.9062C71.375 65.5938 71.125 66.0625 71.0625 66.3125C71 66.5 70.9688 66.625 70.9688 66.6875C70.9688 69.0625 71.4375 71.1562 72.375 72.9688C73.375 74.7812 74.6562 76.375 76.2188 77.75C77.8438 79.0625 79.6875 80.1875 81.75 81.125C83.8125 82.0625 85.9062 82.8438 88.0312 83.4688C90.2188 84.0312 92.3438 84.4688 94.4062 84.7812C96.5312 85.0938 98.4688 85.2812 100.219 85.3438C99.4688 86.0938 99 86.7188 98.8125 87.2188C98.6875 87.7188 98.5625 88.125 98.4375 88.4375C98.375 88.75 98.1875 88.9688 97.875 89.0938C97.5625 89.2188 96.9375 89.2812 96 89.2812C90.3125 89.2812 84.9688 88.0625 79.9688 85.625C74.9688 83.125 70.7812 79.8125 67.4062 75.6875C67.1562 75.3125 66.7188 74.8125 66.0938 74.1875C65.5312 73.5625 65.1875 73.2188 65.0625 73.1562C64.625 73.0312 64 73.3438 63.1875 74.0938C62.4375 74.8438 61.5312 75.8125 60.4688 77C59.4688 78.125 58.375 79.4062 57.1875 80.8438C56.0625 82.2188 54.9062 83.5312 53.7188 84.7812C52.5312 85.9688 51.3438 86.9688 50.1562 87.7812C48.9688 88.5938 47.8438 89 46.7812 89C46.2812 89 45.9375 88.7812 45.75 88.3438C45.625 87.9062 45.5625 87.5312 45.5625 87.2188V86.8438ZM100.594 119.188C100.156 119.062 99.75 118.844 99.375 118.531C99 118.281 98.75 117.969 98.625 117.594C98.4375 117.219 98.4062 116.844 98.5312 116.469C98.5938 116.094 98.9062 115.781 99.4688 115.531C102.219 114.594 104.844 113.594 107.344 112.531C109.844 111.469 112.156 110.188 114.281 108.688C116.469 107.25 118.438 105.5 120.188 103.438C122 101.375 123.562 98.9062 124.875 96.0312L159 23.1875H157.781C157.656 23.1875 156.969 23.4688 155.719 24.0312C154.469 24.5938 153 25.25 151.312 26C149.688 26.75 148 27.5312 146.25 28.3438C144.5 29.1562 143.094 29.8438 142.031 30.4062C140.531 31.1562 138.781 32.2188 136.781 33.5938C134.844 34.9062 132.812 36.4375 130.688 38.1875C128.625 39.9375 126.594 41.8438 124.594 43.9062C122.594 45.9062 120.781 47.9688 119.156 50.0938C117.594 52.1562 116.312 54.2188 115.312 56.2812C114.375 58.3438 113.906 60.25 113.906 62C113.906 62.6875 114.031 63.2812 114.281 63.7812C114.594 64.2812 114.938 64.7812 115.312 65.2812C115.688 65.7188 116 66.2188 116.25 66.7812C116.562 67.2812 116.719 67.8438 116.719 68.4688C115.406 68.4688 114.281 68.25 113.344 67.8125C112.406 67.3125 111.625 66.6875 111 65.9375C110.438 65.125 110 64.2188 109.688 63.2188C109.438 62.2188 109.312 61.1875 109.312 60.125C109.312 58.5 109.594 56.9688 110.156 55.5312C110.719 54.0312 111.438 52.625 112.312 51.3125C113.25 49.9375 114.281 48.6562 115.406 47.4688C116.531 46.2188 117.688 45 118.875 43.8125C119.875 42.8125 121.219 41.5312 122.906 39.9688C124.594 38.3438 126.281 36.75 127.969 35.1875C129.656 33.625 131.156 32.2812 132.469 31.1562C133.781 29.9688 134.531 29.3125 134.719 29.1875L163.875 13.4375C165.25 12.625 166.438 11.4688 167.438 9.96875C168.5 8.46875 169.531 7 170.531 5.5625C171.594 4.0625 172.781 2.78125 174.094 1.71875C175.406 0.59375 177.062 0.03125 179.062 0.03125C179.625 0.03125 180.125 0.15625 180.562 0.40625C181 0.59375 181.5 0.875 182.062 1.25C182.125 1.5 182.156 2.03125 182.156 2.84375C182.219 3.59375 182.25 4.09375 182.25 4.34375C182.25 5.15625 182.25 5.8125 182.25 6.3125C182.25 6.75 182.156 7.15625 181.969 7.53125C181.844 7.84375 181.594 8.15625 181.219 8.46875C180.906 8.78125 180.375 9.21875 179.625 9.78125C179.062 10.2187 178.062 10.9687 176.625 12.0312C175.25 13.0938 173.75 14.3437 172.125 15.7812C170.5 17.1562 168.938 18.625 167.438 20.1875C166 21.6875 165 23.0938 164.438 24.4062L143.156 66.875C143.094 67.1875 142.906 67.8125 142.594 68.75C142.344 69.625 142.156 70.2188 142.031 70.5312C141.531 71.5312 140.875 72.875 140.062 74.5625C139.312 76.1875 138.469 77.9688 137.531 79.9062C136.656 81.7812 135.719 83.75 134.719 85.8125C133.781 87.8125 132.875 89.6875 132 91.4375C131.188 93.1875 130.469 94.6875 129.844 95.9375C129.219 97.25 128.781 98.0938 128.531 98.4688C127.469 100.531 125.938 102.844 123.938 105.406C122 107.969 119.781 110.344 117.281 112.531C114.781 114.719 112.094 116.469 109.219 117.781C106.344 119.094 103.469 119.562 100.594 119.188ZM165.094 85.8125C165.094 84.875 165.188 84.0938 165.375 83.4688C165.625 82.7812 166.375 82.1875 167.625 81.6875C168.125 80.8125 168.906 79.4688 169.969 77.6562C171.031 75.7812 172.219 73.6875 173.531 71.375C174.906 69.0625 176.344 66.625 177.844 64.0625C179.344 61.5 180.781 59.0625 182.156 56.75C183.531 54.4375 184.75 52.375 185.812 50.5625C186.938 48.6875 187.781 47.3125 188.344 46.4375C188.969 45.375 189.844 44.0312 190.969 42.4062C192.094 40.7188 193.312 39.0312 194.625 37.3438C195.938 35.5938 197.312 33.9062 198.75 32.2812C200.188 30.6562 201.562 29.3125 202.875 28.25C203 28.1875 203.25 28.125 203.625 28.0625C204 27.9375 204.25 27.875 204.375 27.875C204.375 28.8125 203.938 30.1875 203.062 32C202.25 33.8125 201.188 35.8438 199.875 38.0938C198.562 40.2812 197.094 42.5938 195.469 45.0312C193.844 47.4688 192.25 49.8438 190.688 52.1562C189.125 54.4688 187.688 56.625 186.375 58.625C185.125 60.625 184.156 62.25 183.469 63.5C182.719 64.8125 181.781 66.5938 180.656 68.8438C179.594 71.0312 178.406 73.3125 177.094 75.6875C175.781 78 174.406 80.2812 172.969 82.5312C171.594 84.7188 170.219 86.4688 168.844 87.7812C168.656 87.9688 168.25 88.2188 167.625 88.5312C167 88.8438 166.625 89 166.5 89C166.125 89 165.812 88.875 165.562 88.625C165.375 88.3125 165.25 88 165.188 87.6875C165.125 87.3125 165.094 86.9688 165.094 86.6562C165.094 86.2812 165.094 86 165.094 85.8125ZM208.406 80.4688C208.844 79.2812 209.625 78.1562 210.75 77.0938C211.938 76.0312 213.312 75.0312 214.875 74.0938C216.5 73.1562 218.25 72.3125 220.125 71.5625C222 70.8125 223.844 70.1562 225.656 69.5938C227.469 68.9688 229.188 68.4688 230.812 68.0938C232.5 67.6562 233.906 67.3438 235.031 67.1562C235.031 67.0938 235.031 67 235.031 66.875C235.094 66.6875 235.125 66.5625 235.125 66.5C235.125 65.6875 234.656 65.0312 233.719 64.5312C232.781 64.0312 232.031 63.6875 231.469 63.5C230.656 63.1875 229.219 62.6875 227.156 62C225.094 61.3125 222.875 60.5938 220.5 59.8438C218.188 59.0312 216 58.2812 213.938 57.5938C211.875 56.9062 210.438 56.4375 209.625 56.1875C208.625 54.9375 208.156 53.875 208.219 53C208.344 52.0625 208.781 51.3438 209.531 50.8438C210.281 50.3438 211.219 50.0312 212.344 49.9062C213.531 49.7812 214.688 49.8438 215.812 50.0938C217 50.2812 218.031 50.6875 218.906 51.3125C219.781 51.9375 220.344 52.75 220.594 53.75L242.344 62.1875C244.906 63.25 246.188 64.875 246.188 67.0625C246.188 68.0625 245.844 68.8125 245.156 69.3125C244.531 69.8125 243.75 70.1562 242.812 70.3438C241.875 70.5312 240.906 70.6562 239.906 70.7188C238.969 70.7188 238.188 70.7188 237.562 70.7188L212.062 81.6875C211.938 81.6875 211.812 81.7188 211.688 81.7812C211.625 81.7812 211.531 81.7812 211.406 81.7812C210.844 81.7812 210.312 81.6875 209.812 81.5C209.375 81.25 208.906 80.9062 208.406 80.4688Z" fill="white"/>
</svg>
